<?xml version="1.0" encoding="utf-8"?>
<!-- Generator: Adobe Illustrator 23.0.1, SVG Export Plug-In . SVG Version: 6.00 Build 0)  -->
<svg version="1.1" id="Layer_1" xmlns="http://www.w3.org/2000/svg" xmlns:xlink="http://www.w3.org/1999/xlink" x="0px" y="0px"
	 viewBox="0 0 1080 1920" style="enable-background:new 0 0 1080 1920;" xml:space="preserve">
<style type="text/css">
	.st0{fill-rule:evenodd;clip-rule:evenodd;fill:url(#SVGID_1_);}
	.st1{fill-rule:evenodd;clip-rule:evenodd;fill:url(#SVGID_2_);}
	.st2{fill-rule:evenodd;clip-rule:evenodd;fill:url(#SVGID_3_);}
	.st3{fill-rule:evenodd;clip-rule:evenodd;fill:url(#SVGID_4_);}
	.st4{fill-rule:evenodd;clip-rule:evenodd;fill:url(#SVGID_5_);}
	.st5{fill-rule:evenodd;clip-rule:evenodd;fill:url(#SVGID_6_);}
	.st6{fill-rule:evenodd;clip-rule:evenodd;fill:url(#SVGID_7_);}
	.st7{fill-rule:evenodd;clip-rule:evenodd;fill:url(#SVGID_8_);}
	.st8{fill-rule:evenodd;clip-rule:evenodd;fill:url(#SVGID_9_);}
	.st9{fill-rule:evenodd;clip-rule:evenodd;fill:url(#SVGID_10_);}
	.st10{fill-rule:evenodd;clip-rule:evenodd;fill:url(#SVGID_11_);}
	.st11{fill-rule:evenodd;clip-rule:evenodd;fill:url(#SVGID_12_);}
	.st12{fill-rule:evenodd;clip-rule:evenodd;fill:url(#SVGID_13_);}
	.st13{fill-rule:evenodd;clip-rule:evenodd;fill:url(#SVGID_14_);}
	.st14{fill-rule:evenodd;clip-rule:evenodd;fill:url(#SVGID_15_);}
	.st15{fill-rule:evenodd;clip-rule:evenodd;fill:url(#SVGID_16_);}
	.st16{fill-rule:evenodd;clip-rule:evenodd;fill:url(#SVGID_17_);}
	.st17{fill-rule:evenodd;clip-rule:evenodd;fill:url(#SVGID_18_);}
	.st18{fill-rule:evenodd;clip-rule:evenodd;fill:url(#SVGID_19_);}
	.st19{fill-rule:evenodd;clip-rule:evenodd;fill:url(#SVGID_20_);}
	.st20{fill-rule:evenodd;clip-rule:evenodd;fill:url(#SVGID_21_);}
</style>
<g>
	<linearGradient id="SVGID_1_" gradientUnits="userSpaceOnUse" x1="661.8878" y1="1917.2736" x2="664.0617" y2="-6.6395">
		<stop  offset="0" style="stop-color:#FFFFFF"/>
		<stop  offset="0.4832" style="stop-color:#F2EAEB"/>
		<stop  offset="1" style="stop-color:#D8CCC4"/>
	</linearGradient>
	<path class="st0" d="M664.6,965.7h-11.5v16.1h11.4c5.6,0,8.3-3.8,8.3-8.2S670.2,965.7,664.6,965.7z"/>
	<linearGradient id="SVGID_2_" gradientUnits="userSpaceOnUse" x1="660.3302" y1="1917.2717" x2="662.5042" y2="-6.6413">
		<stop  offset="0" style="stop-color:#FFFFFF"/>
		<stop  offset="0.4832" style="stop-color:#F2EAEB"/>
		<stop  offset="1" style="stop-color:#D8CCC4"/>
	</linearGradient>
	<path class="st1" d="M669.8,943.3c0-3.6-2.1-6.6-7.2-6.6h-9.5v13.8h9.8C667.7,950.5,669.8,947,669.8,943.3z"/>
	<linearGradient id="SVGID_3_" gradientUnits="userSpaceOnUse" x1="225.941" y1="1916.7809" x2="228.1149" y2="-7.1321">
		<stop  offset="0" style="stop-color:#FFFFFF"/>
		<stop  offset="0.4832" style="stop-color:#F2EAEB"/>
		<stop  offset="1" style="stop-color:#D8CCC4"/>
	</linearGradient>
	<path class="st2" d="M226.9,1067c-11.6,0-21,9.6-21,22.3c0,13.3,9.4,23.3,21,23.3c11.6,0,21-10,21-23.3
		C247.9,1076.6,238.5,1067,226.9,1067z"/>
	<linearGradient id="SVGID_4_" gradientUnits="userSpaceOnUse" x1="263.2718" y1="1916.8231" x2="265.4457" y2="-7.0899">
		<stop  offset="0" style="stop-color:#FFFFFF"/>
		<stop  offset="0.4832" style="stop-color:#F2EAEB"/>
		<stop  offset="1" style="stop-color:#D8CCC4"/>
	</linearGradient>
	<path class="st3" d="M274.2,973.7c0-4.4-2.6-7.9-8.2-7.9h-11.5v16.1h11.4C271.5,981.8,274.2,978,274.2,973.7z"/>
	<linearGradient id="SVGID_5_" gradientUnits="userSpaceOnUse" x1="553.1854" y1="1917.1506" x2="555.3594" y2="-6.7624">
		<stop  offset="0" style="stop-color:#FFFFFF"/>
		<stop  offset="0.4832" style="stop-color:#F2EAEB"/>
		<stop  offset="1" style="stop-color:#D8CCC4"/>
	</linearGradient>
	<path class="st4" d="M554.3,1068.6h-0.2c0,0-1.7,8.5-3.2,13.4l-4.5,15.1h15.3l-4.4-15.1C556,1077.1,554.3,1068.6,554.3,1068.6z"/>
	<linearGradient id="SVGID_6_" gradientUnits="userSpaceOnUse" x1="545.3312" y1="1917.1418" x2="547.5052" y2="-6.7712">
		<stop  offset="0" style="stop-color:#FFFFFF"/>
		<stop  offset="0.4832" style="stop-color:#F2EAEB"/>
		<stop  offset="1" style="stop-color:#D8CCC4"/>
	</linearGradient>
	<path class="st5" d="M543,809.7c0,12.4-2.1,29.7-8.5,41.7h24.1v-45.3H543V809.7z"/>
	<linearGradient id="SVGID_7_" gradientUnits="userSpaceOnUse" x1="390.2408" y1="1916.9666" x2="392.4147" y2="-6.9465">
		<stop  offset="0" style="stop-color:#FFFFFF"/>
		<stop  offset="0.4832" style="stop-color:#F2EAEB"/>
		<stop  offset="1" style="stop-color:#D8CCC4"/>
	</linearGradient>
	<path class="st6" d="M391.2,1067c-11.6,0-21,9.6-21,22.3c0,13.3,9.4,23.3,21,23.3c11.6,0,21-10,21-23.3
		C412.2,1076.6,402.8,1067,391.2,1067z M391.4,1098.3c-4.3,0-7.8-3.5-7.8-7.8c0-4.3,3.5-7.8,7.8-7.8c4.3,0,7.8,3.5,7.8,7.8
		C399.2,1094.8,395.7,1098.3,391.4,1098.3z"/>
	<linearGradient id="SVGID_8_" gradientUnits="userSpaceOnUse" x1="383.1581" y1="1916.9586" x2="385.332" y2="-6.9545">
		<stop  offset="0" style="stop-color:#FFFFFF"/>
		<stop  offset="0.4832" style="stop-color:#F2EAEB"/>
		<stop  offset="1" style="stop-color:#D8CCC4"/>
	</linearGradient>
	<path class="st7" d="M392.7,812.7c0-3.6-2.1-6.6-7.2-6.6h-9.5v13.8h9.8C390.7,819.9,392.7,816.4,392.7,812.7z"/>
	<linearGradient id="SVGID_9_" gradientUnits="userSpaceOnUse" x1="425.5852" y1="1917.0065" x2="427.7591" y2="-6.9065">
		<stop  offset="0" style="stop-color:#FFFFFF"/>
		<stop  offset="0.4832" style="stop-color:#F2EAEB"/>
		<stop  offset="1" style="stop-color:#D8CCC4"/>
	</linearGradient>
	<path class="st8" d="M427,720.9c11.6,0,21-10,21-23.3c0-12.7-9.4-22.3-21-22.3c-11.6,0-21,9.6-21,22.3
		C406,710.9,415.3,720.9,427,720.9z"/>
	<linearGradient id="SVGID_10_" gradientUnits="userSpaceOnUse" x1="335.2321" y1="1916.9044" x2="337.406" y2="-7.0086">
		<stop  offset="0" style="stop-color:#FFFFFF"/>
		<stop  offset="0.4832" style="stop-color:#F2EAEB"/>
		<stop  offset="1" style="stop-color:#D8CCC4"/>
	</linearGradient>
	<path class="st9" d="M327.2,981.8h8.6c6.3,0,9.6-4.2,9.6-10.4c0-6.2-3.3-10.7-9.9-10.7h-8.3V981.8z"/>
	<linearGradient id="SVGID_11_" gradientUnits="userSpaceOnUse" x1="261.7142" y1="1916.8213" x2="263.8882" y2="-7.0917">
		<stop  offset="0" style="stop-color:#FFFFFF"/>
		<stop  offset="0.4832" style="stop-color:#F2EAEB"/>
		<stop  offset="1" style="stop-color:#D8CCC4"/>
	</linearGradient>
	<path class="st10" d="M271.1,943.3c0-3.6-2.1-6.6-7.2-6.6h-9.5v13.8h9.8C269.1,950.5,271.1,947,271.1,943.3z"/>
	<linearGradient id="SVGID_12_" gradientUnits="userSpaceOnUse" x1="384.7156" y1="1916.9603" x2="386.8896" y2="-6.9527">
		<stop  offset="0" style="stop-color:#FFFFFF"/>
		<stop  offset="0.4832" style="stop-color:#F2EAEB"/>
		<stop  offset="1" style="stop-color:#D8CCC4"/>
	</linearGradient>
	<path class="st11" d="M395.8,843.1c0-4.4-2.6-7.9-8.2-7.9h-11.5v16.1h11.4C393.1,851.3,395.8,847.4,395.8,843.1z"/>
	<linearGradient id="SVGID_13_" gradientUnits="userSpaceOnUse" x1="585.6319" y1="1917.1874" x2="587.8058" y2="-6.7257">
		<stop  offset="0" style="stop-color:#FFFFFF"/>
		<stop  offset="0.4832" style="stop-color:#F2EAEB"/>
		<stop  offset="1" style="stop-color:#D8CCC4"/>
	</linearGradient>
	<path class="st12" d="M590,951.5c-1.4-4.9-3.2-13.4-3.2-13.4h-0.2c0,0-1.7,8.5-3.2,13.4l-4.5,15.1h15.3L590,951.5z"/>
	<linearGradient id="SVGID_14_" gradientUnits="userSpaceOnUse" x1="831.6201" y1="1917.4653" x2="833.794" y2="-6.4477">
		<stop  offset="0" style="stop-color:#FFFFFF"/>
		<stop  offset="0.4832" style="stop-color:#F2EAEB"/>
		<stop  offset="1" style="stop-color:#D8CCC4"/>
	</linearGradient>
	<path class="st13" d="M832.6,1199.2h-0.2c0,0-1.7,8.5-3.2,13.4l-4.5,15.1h15.3l-4.4-15.1C834.3,1207.7,832.6,1199.2,832.6,1199.2z"
		/>
	<linearGradient id="SVGID_15_" gradientUnits="userSpaceOnUse" x1="759.8983" y1="1917.3843" x2="762.0721" y2="-6.5288">
		<stop  offset="0" style="stop-color:#FFFFFF"/>
		<stop  offset="0.4832" style="stop-color:#F2EAEB"/>
		<stop  offset="1" style="stop-color:#D8CCC4"/>
	</linearGradient>
	<path class="st14" d="M762.4,1226.8h-11.5v16.1h11.4c5.6,0,8.3-3.8,8.3-8.2S767.9,1226.8,762.4,1226.8z"/>
	<linearGradient id="SVGID_16_" gradientUnits="userSpaceOnUse" x1="765.266" y1="1917.3904" x2="767.4399" y2="-6.5227">
		<stop  offset="0" style="stop-color:#FFFFFF"/>
		<stop  offset="0.4832" style="stop-color:#F2EAEB"/>
		<stop  offset="1" style="stop-color:#D8CCC4"/>
	</linearGradient>
	<path class="st15" d="M756.9,851.3h9.7c6.3,0,9.6-4.2,9.6-10.5c0-6.2-3.3-10.7-9.9-10.7h-9.4V851.3z"/>
	<linearGradient id="SVGID_17_" gradientUnits="userSpaceOnUse" x1="758.3411" y1="1917.3824" x2="760.5151" y2="-6.5305">
		<stop  offset="0" style="stop-color:#FFFFFF"/>
		<stop  offset="0.4832" style="stop-color:#F2EAEB"/>
		<stop  offset="1" style="stop-color:#D8CCC4"/>
	</linearGradient>
	<path class="st16" d="M767.5,1204.4c0-3.6-2.1-6.6-7.2-6.6h-9.5v13.8h9.8C765.4,1211.6,767.5,1208.1,767.5,1204.4z"/>
	<linearGradient id="SVGID_18_" gradientUnits="userSpaceOnUse" x1="538.9185" y1="1917.1345" x2="541.0924" y2="-6.7785">
		<stop  offset="0" style="stop-color:#FFFFFF"/>
		<stop  offset="0.4832" style="stop-color:#F2EAEB"/>
		<stop  offset="1" style="stop-color:#D8CCC4"/>
	</linearGradient>
	<path class="st17" d="M0,0v1920h1080V0H0z M867.1,1050.9h47.7v16.3h-28.6v61.5h-19.1V1050.9z M811.3,948.3
		c2.6,5.6,4.2,10.5,4.2,10.5h0.2c0,0,1.2-4.9,3-10.3l9.6-28.1h20l-23,58.3c-3.6,9.1-9.6,20.8-23.3,20.8c-6.9,0-12.3-2.1-17.7-5.9
		l8.3-14.3c2.1,1.7,5,3.9,8.6,3.9c3,0,5.1-1.4,6.2-4l-30-58.9h20.9L811.3,948.3z M853,1089.3c0,22.9-17.2,40.7-40.7,40.7
		c-23.5,0-40.7-17.9-40.7-40.7c0-22.3,17.2-39.7,40.7-39.7C835.8,1049.6,853,1067,853,1089.3z M795.5,840.8
		c0,15.7-10.2,26.8-25.4,26.8h-32.3v-77.8h19v24.1h13.3C785.3,813.8,795.5,825.1,795.5,840.8z M710.2,1098.2v30.5h-19v-77.8h19v31.1
		h28.3v-31.1h19v77.8h-19v-30.5H710.2z M615.1,1128.7v15.2h-17.5v-31.5h8.1c7.9-13.8,9.9-29.2,9.9-43.2v-18.4h52.7v61.6h8.7v31.5
		h-16.9v-15.2H615.1z M486.3,936.6v-16.3h66.3v16.3H529v61.5h-19v-61.5H486.3z M472.6,1067.2v9.5c0,38.3-11.8,52.9-33.6,52.9v-17.3
		c9.3-1.2,15.6-7.9,15.6-35.8v-25.6h52.3v77.8h-19v-61.5H472.6z M448.2,839.4c0,0,3.5-8.2,6.5-13.3l21.6-36.4h19.3v77.8h-19v-36.2
		c0-4.9,0.9-13.3,0.9-13.3h-0.2c0,0-3.5,8.2-6.5,13.3l-21.7,36.2h-19.2v-77.8h19v36.4c0,4.9-0.9,13.3-0.9,13.3H448.2z M447.7,919
		c10.4,0,21.6,3.5,29.2,11l-8.8,14.4c-5-4.4-12.5-7.9-19.5-7.9c-15.6,0-22,11-22,22.2c0,11.5,7,23.4,22,23.4
		c7.7,0,15.3-4.2,20.7-9.6l9.8,13.9c-6.9,7.1-17.1,13.1-31.3,13.1c-25,0-40.8-17.3-40.8-40.4C406.9,936.4,423.7,919,447.7,919z
		 M586.3,851.4v31.5h-16.9v-15.2h-45v15.2H507v-31.5h8.1c7.9-13.8,9.9-29.2,9.9-43.2v-18.4h52.7v61.6H586.3z M576.7,920.3h20
		l26.5,77.8h-19.6l-4.8-16.3h-24.3l-4.7,16.3h-19.6L576.7,920.3z M643.3,820.2v16.3h-23.7v14.7h31.2v16.3h-50.3v-77.8h48.8v16.3
		h-29.7v14.2H643.3z M662.7,998.1h-28.6v-77.8h28.6c15.6,0,26.5,7,26.5,20.4c0,6.5-3.2,13.2-9,16.5v0.2c8.9,2.7,12.2,10.7,12.2,17.5
		C692.3,991.9,678.1,998.1,662.7,998.1z M659.8,806.1v-16.3H726v16.3h-23.6v61.5h-19v-61.5H659.8z M750.1,998.1l-16.4-31.6h-7.8
		v31.6h-19v-77.8h19v30h7.8l16.1-30h20.5l-21,37.2v0.2l22.2,40.4H750.1z M708.4,659.2h48.8v16.3h-29.7v14.2h23.7V706h-23.7v14.7
		h31.2V737h-50.3V659.2z M630.3,659.2h66.3v16.3H673V737h-19v-61.5h-23.6V659.2z M552.8,659.2h19v36.4c0,4.9-0.9,13.3-0.9,13.3h0.2
		c0,0,3.5-8.2,6.5-13.3l21.6-36.4h19.3V737h-19v-36.2c0-4.9,0.9-13.3,0.9-13.3h-0.2c0,0-3.5,8.2-6.5,13.3L572,737h-19.2V659.2z
		 M474.8,659.2h66.3v16.3h-23.6V737h-19v-61.5h-23.6V659.2z M427,657.9c23.5,0,40.7,17.4,40.7,39.7c0,22.9-17.2,40.7-40.7,40.7
		c-23.5,0-40.7-17.9-40.7-40.7C386.3,675.3,403.5,657.9,427,657.9z M412.1,810.1c0,6.5-3.2,13.2-9,16.5v0.2
		c8.9,2.7,12.2,10.7,12.2,17.5c0,17-14.2,23.2-29.6,23.2H357v-77.8h28.6C401.2,789.8,412.1,796.7,412.1,810.1z M392.5,920.3v77.8
		h-19v-77.8H392.5z M339.4,944.4c15.1,0,25.4,11.3,25.4,27c0,15.7-10.2,26.8-25.4,26.8h-31.2v-77.8h19v24.1H339.4z M334,659.2
		l8.5,16c2.6,4.9,4.8,10,4.8,10h0.2c0,0,2.1-5,4.8-10l8.6-16h21.7l-23.8,39.2l23.7,38.6h-21.2l-8.9-16.3c-2.7-4.9-4.8-9.7-4.8-9.7
		h-0.2c0,0-2.1,4.8-4.8,9.7l-8.9,16.3h-21.1l23.6-38.6l-23.7-39.2H334z M296.6,789.8l13,28c2.6,5.6,4.2,10.4,4.2,10.4h0.2
		c0,0,1.2-4.9,3-10.3l9.6-28.1h20l-23,58.3c-3.6,9.1-9.6,20.8-23.3,20.8c-6.9,0-12.3-2.1-17.7-5.9l8.3-14.3c2.1,1.7,5,3.9,8.6,3.9
		c3,0,5.1-1.4,6.2-4l-30-58.9H296.6z M235.4,920.3h28.6c15.6,0,26.5,7,26.5,20.4c0,6.5-3.2,13.2-9,16.5v0.2
		c8.9,2.7,12.2,10.7,12.2,17.5c0,17-14.2,23.2-29.6,23.2h-28.6V920.3z M172.1,1128.7H75.7v-77.8h19v61.6h19.6v-61.6h19v61.6H153
		v-61.6h19V1128.7z M253.5,1259.3h-19V1223c0-4.9,0.9-13.3,0.9-13.3h-0.2c0,0-3.5,8.2-6.5,13.3l-21.7,36.2h-19.2v-77.8h19v36.4
		c0,4.9-0.9,13.3-0.9,13.3h0.2c0,0,3.5-8.2,6.5-13.3l21.6-36.4h19.3V1259.3z M226.9,1130c-23.5,0-40.7-17.9-40.7-40.7
		c0-22.3,17.2-39.7,40.7-39.7c23.5,0,40.7,17.4,40.7,39.7C267.6,1112.2,250.4,1130,226.9,1130z M308.6,1260.6
		c-25,0-40.8-17.3-40.8-40.4c0-22.6,16.8-40.1,40.8-40.1c10.5,0,21.6,3.5,29.2,11l-8.8,14.4c-5-4.4-12.5-7.9-19.5-7.9
		c-15.6,0-22,11-22,22.2c0,11.5,7,23.4,22,23.4c7.7,0,15.3-4.2,20.7-9.6l9.8,13.9C333.1,1254.6,322.8,1260.6,308.6,1260.6z
		 M325,1128.7l-16.4-31.6h-7.8v31.6h-19v-77.8h19v30h7.8l16.1-30h20.5l-21,37.2v0.2l22.2,40.4H325z M395,1259.3l-16.4-31.6h-7.8
		v31.6h-19v-77.8h19v30h7.8l16.1-30h20.5l-21,37.2v0.2l22.2,40.4H395z M391.2,1130c-23.5,0-40.7-17.9-40.7-40.7
		c0-22.3,17.2-39.7,40.7-39.7s40.7,17.4,40.7,39.7C431.9,1112.2,414.7,1130,391.2,1130z M470.3,1239.8c-3.6,9.1-9.6,20.8-23.3,20.8
		c-6.9,0-12.3-2.1-17.7-5.9l8.3-14.3c2.1,1.7,5,3.9,8.6,3.9c3,0,5.1-1.4,6.2-4l-30-58.9h20.9l13,28c2.6,5.6,4.2,10.4,4.2,10.4h0.2
		c0,0,1.2-4.9,3-10.3l9.6-28.1h20L470.3,1239.8z M537,1260.6c-25,0-40.8-17.3-40.8-40.4c0-22.6,16.8-40.1,40.8-40.1
		c10.5,0,21.6,3.5,29.2,11l-8.8,14.4c-5-4.4-12.5-7.9-19.5-7.9c-15.6,0-22,11-22,22.2c0,11.5,7,23.4,22,23.4
		c7.7,0,15.3-4.2,20.7-9.6l9.8,13.9C561.5,1254.6,551.3,1260.6,537,1260.6z M566.2,1112.4H542l-4.7,16.3h-19.6l26.5-77.8h20
		l26.5,77.8H571L566.2,1112.4z M615.2,1260.6c-25,0-40.8-17.3-40.8-40.4c0-22.6,16.8-40.1,40.8-40.1c10.4,0,21.6,3.5,29.2,11
		l-8.8,14.4c-5-4.4-12.5-7.9-19.5-7.9c-15.6,0-22,11-22,22.2c0,11.5,7,23.4,22,23.4c7.7,0,15.3-4.2,20.7-9.6l9.8,13.9
		C639.7,1254.6,629.4,1260.6,615.2,1260.6z M720,1197.8h-23.6v61.5h-19v-61.5h-23.6v-16.3H720V1197.8z M760.4,1259.3h-28.6v-77.8
		h28.6c15.6,0,26.5,7,26.5,20.4c0,6.5-3.2,13.2-9,16.5v0.2c8.9,2.7,12.2,10.7,12.2,17.5C790,1253.1,775.9,1259.3,760.4,1259.3z
		 M849.3,1259.3l-4.8-16.3h-24.3l-4.7,16.3H796l26.5-77.8h20l26.5,77.8H849.3z M900.6,1259.3h-17.2V1243h17.2V1259.3z M901.1,1231.3
		v3.9H883v-5.4c0-14.7,17.1-17.3,17.1-26.5c0-3.7-3.6-6.4-7.7-6.4c-3.9,0-7.5,2.2-10.3,4.7l-10.5-12.7c4.7-4.7,12.3-9,22.8-9
		c12.2,0,25.4,7.3,25.4,21.3C919.7,1219,901.1,1221.6,901.1,1231.3z M962.3,1130c-23.5,0-40.7-17.9-40.7-40.7
		c0-22.3,17.2-39.7,40.7-39.7s40.7,17.4,40.7,39.7C1003,1112.2,985.8,1130,962.3,1130z"/>
	<linearGradient id="SVGID_19_" gradientUnits="userSpaceOnUse" x1="811.3912" y1="1917.4425" x2="813.5652" y2="-6.4706">
		<stop  offset="0" style="stop-color:#FFFFFF"/>
		<stop  offset="0.4832" style="stop-color:#F2EAEB"/>
		<stop  offset="1" style="stop-color:#D8CCC4"/>
	</linearGradient>
	<path class="st18" d="M812.3,1067c-11.6,0-21,9.6-21,22.3c0,13.3,9.4,23.3,21,23.3c11.6,0,21-10,21-23.3
		C833.3,1076.6,824,1067,812.3,1067z"/>
	<linearGradient id="SVGID_20_" gradientUnits="userSpaceOnUse" x1="961.3401" y1="1917.6119" x2="963.514" y2="-6.3012">
		<stop  offset="0" style="stop-color:#FFFFFF"/>
		<stop  offset="0.4832" style="stop-color:#F2EAEB"/>
		<stop  offset="1" style="stop-color:#D8CCC4"/>
	</linearGradient>
	<path class="st19" d="M962.3,1067c-11.6,0-21,9.6-21,22.3c0,13.3,9.4,23.3,21,23.3s21-10,21-23.3
		C983.3,1076.6,973.9,1067,962.3,1067z M961.7,1098.3c-4.3,0-7.8-3.5-7.8-7.8c0-4.3,3.5-7.8,7.8-7.8c4.3,0,7.8,3.5,7.8,7.8
		C969.6,1094.8,966.1,1098.3,961.7,1098.3z"/>
	<linearGradient id="SVGID_21_" gradientUnits="userSpaceOnUse" x1="636.2792" y1="1917.2446" x2="638.4531" y2="-6.6685">
		<stop  offset="0" style="stop-color:#FFFFFF"/>
		<stop  offset="0.4832" style="stop-color:#F2EAEB"/>
		<stop  offset="1" style="stop-color:#D8CCC4"/>
	</linearGradient>
	<path class="st20" d="M633.7,1070.8c0,12.4-2.1,29.7-8.5,41.7h24.1v-45.3h-15.6V1070.8z"/>
</g>
</svg>
