<?xml version="1.0" encoding="utf-8"?>
<!-- Generator: Adobe Illustrator 23.0.1, SVG Export Plug-In . SVG Version: 6.00 Build 0)  -->
<svg version="1.1" id="Layer_1" xmlns="http://www.w3.org/2000/svg" xmlns:xlink="http://www.w3.org/1999/xlink" x="0px" y="0px"
	 viewBox="0 0 686 46" style="enable-background:new 0 0 686 46;" xml:space="preserve">
<style type="text/css">
	.st0{fill:#FBE7DF;}
</style>
<g>
	<g>
		<path class="st0" d="M24.9,1h8.4l8.2,12.6L49.7,1h8.4L45.7,20l13.2,20.2h-8.4l-9-13.8l-9,13.8H24L37.3,20L24.9,1z"/>
		<path class="st0" d="M83,0c5.5,0,10.3,2,14.3,6c4,4,6,8.9,6,14.7c0,5.7-2,10.5-5.9,14.5c-3.9,4-8.7,5.9-14.3,5.9
			c-5.9,0-10.8-2-14.6-6.1s-5.8-8.9-5.8-14.5c0-3.7,0.9-7.2,2.7-10.3c1.8-3.1,4.3-5.6,7.5-7.5C75.9,0.9,79.3,0,83,0z M82.9,7.3
			c-3.6,0-6.7,1.3-9.1,3.8c-2.5,2.5-3.7,5.7-3.7,9.6c0,4.3,1.6,7.8,4.7,10.3c2.4,2,5.2,3,8.3,3c3.5,0,6.6-1.3,9-3.8
			c2.5-2.6,3.7-5.7,3.7-9.5c0-3.7-1.3-6.9-3.8-9.5C89.5,8.6,86.5,7.3,82.9,7.3z"/>
		<path class="st0" d="M127.4,23h-2.5c-3.6,0-6.3-0.2-8-0.6c-1.7-0.4-3.3-1.2-4.9-2.4c-1.6-1.2-2.7-2.7-3.3-4.4s-1-4-1-6.9V1h7.6
			v7.6c0,2.7,0.5,4.5,1.4,5.6c1,1,3,1.6,6.1,1.6h4.5V1h7.5v39.2h-7.5V23z"/>
		<path class="st0" d="M154.8,31.2L140.9,1h8.4l9.2,21.8L166.1,1h7.7l-10.4,28c-1.8,4.8-3.7,8-5.8,9.6c-2.1,1.6-4.3,2.4-6.7,2.4
			c-3.9,0-7.4-1.9-10.7-5.7l4.9-4.9c2,2.3,3.9,3.4,5.8,3.4c0.9,0,1.6-0.2,2.1-0.6C153.4,32.8,154,32.1,154.8,31.2z"/>
		<path class="st0" d="M194.1,40.1V1h6.2c3.6,0,6.2,0.2,7.8,0.7c2.3,0.6,4.2,1.8,5.6,3.5c1.4,1.7,2.1,3.7,2.1,6
			c0,1.5-0.3,2.8-0.9,4.1c-0.6,1.2-1.7,2.4-3.1,3.4c2.4,1.1,4.1,2.5,5.2,4.2c1.1,1.7,1.7,3.7,1.7,5.9c0,2.2-0.6,4.2-1.7,6
			c-1.1,1.8-2.6,3.2-4.4,4.1c-1.8,0.9-4.3,1.3-7.4,1.3H194.1z M201.5,8.1v8.3h1.6c1.8,0,3.2-0.4,4-1.1c0.9-0.8,1.3-1.8,1.3-3.1
			c0-1.2-0.4-2.2-1.3-2.9c-0.8-0.7-2.1-1.1-3.8-1.1H201.5z M201.5,23v10h1.9c3.1,0,5.2-0.4,6.3-1.2c1.1-0.8,1.6-1.9,1.6-3.4
			c0-1.7-0.6-3-1.9-4c-1.3-1-3.4-1.5-6.3-1.5H201.5z"/>
		<path class="st0" d="M254.2,1v39.2h-7.5V15.6l-14.6,24.5h-6.5V1h7.5v25.3L247.9,1H254.2z"/>
		<path class="st0" d="M275.9,1h7.5L296,33.1h4.4V46h-7.2v-5.9h-26.9V46H259V33.1h4.3L275.9,1z M279.7,11.4l-8.6,21.8h17.1
			L279.7,11.4z"/>
		<path class="st0" d="M305.2,1h21.4v7.3h-14v7.1h14v7.2h-14v10.3h14v7.3h-21.4V1z"/>
		<path class="st0" d="M329.7,1h21.6v7.3h-7.1v31.8h-7.6V8.3h-6.9V1z"/>
		<path class="st0" d="M356.4,40.1V1h7.5v14.8h1.6c3.1,0,5.7,0.4,7.8,1.1c2.1,0.7,3.9,2.1,5.4,4.1c1.5,2,2.3,4.4,2.3,7.3
			c0,2.7-0.6,5-1.9,6.8c-1.3,1.9-2.8,3.2-4.5,4c-1.7,0.8-4.1,1.2-7,1.2H356.4z M363.9,22.4V33h1.9c3.1,0,5.2-0.4,6.2-1.1
			c1-0.8,1.6-2.1,1.6-3.9c0-3.7-2.7-5.6-8.1-5.6H363.9z"/>
		<path class="st0" d="M402.6,40.1V1h20.5v7.3h-13v7.5h1.6c3.3,0,6,0.4,8.1,1.1c2.1,0.7,3.8,2.1,5.2,4.1s2.1,4.4,2.1,7.1
			c0,2.7-0.5,4.9-1.6,6.5c-1.1,1.6-2.5,2.9-4.3,4c-1.8,1-4.4,1.5-7.6,1.5H402.6z M410.1,22.4V33h1.9c3.4,0,5.6-0.4,6.5-1.3
			c0.9-0.9,1.4-2.1,1.4-3.6c0-3.8-2.7-5.7-8.1-5.7H410.1z"/>
		<path class="st0" d="M452.1,0c5.5,0,10.3,2,14.3,6c4,4,6,8.9,6,14.7c0,5.7-2,10.5-5.9,14.5c-3.9,4-8.7,5.9-14.3,5.9
			c-5.9,0-10.8-2-14.6-6.1s-5.8-8.9-5.8-14.5c0-3.7,0.9-7.2,2.7-10.3s4.3-5.6,7.5-7.5C445.1,0.9,448.5,0,452.1,0z M452.1,7.3
			c-3.6,0-6.7,1.3-9.1,3.8c-2.5,2.5-3.7,5.7-3.7,9.6c0,4.3,1.6,7.8,4.7,10.3c2.4,2,5.2,3,8.3,3c3.5,0,6.6-1.3,9-3.8
			c2.5-2.6,3.7-5.7,3.7-9.5c0-3.7-1.3-6.9-3.8-9.5C458.7,8.6,455.6,7.3,452.1,7.3z"/>
		<path class="st0" d="M504.8,40.1l-10.8-28.8l-11,28.8H475L490.1,1h7.6l15.1,39.2H504.8z"/>
		<path class="st0" d="M517.2,40.1V1h7.5v14.8h1.6c3.1,0,5.7,0.4,7.8,1.1c2.1,0.7,3.9,2.1,5.4,4.1c1.5,2,2.3,4.4,2.3,7.3
			c0,2.7-0.6,5-1.9,6.8c-1.3,1.9-2.8,3.2-4.5,4c-1.7,0.8-4.1,1.2-7,1.2H517.2z M524.7,22.4V33h1.9c3.1,0,5.2-0.4,6.2-1.1
			c1-0.8,1.6-2.1,1.6-3.9c0-3.7-2.7-5.6-8.1-5.6H524.7z"/>
		<path class="st0" d="M566.2,33.4V1h7.5v32.4h10.7V1h7.6v39.2h-43.7V1h7.6v32.4H566.2z"/>
		<path class="st0" d="M600.9,1h21.4v7.3h-14v7.1h14v7.2h-14v10.3h14v7.3h-21.4V1z"/>
	</g>
	<polygon class="st0" points="662,20.1 642,40 642,0.1 	"/>
</g>
</svg>
