<?xml version="1.0" encoding="utf-8"?>
<!-- Generator: Adobe Illustrator 23.0.1, SVG Export Plug-In . SVG Version: 6.00 Build 0)  -->
<svg version="1.1" id="Layer_1" xmlns="http://www.w3.org/2000/svg" xmlns:xlink="http://www.w3.org/1999/xlink" x="0px" y="0px"
	 viewBox="0 0 903 89" style="enable-background:new 0 0 903 89;" xml:space="preserve">
<style type="text/css">
	.st0{fill-rule:evenodd;clip-rule:evenodd;fill:#652509;}
</style>
<g>
	<path class="st0" d="M252.5,68.9v13.6H240V68.8c-16.2-3.2-26.5-17.7-26.5-34.1c0-18.9,13.7-34.5,33.1-34.5
		c19.4,0,33.1,15.7,33.1,34.6C279.7,51.5,269,66.1,252.5,68.9z M246.6,57c12.5,0,20.3-10.2,20.3-22.1c0-11.9-7.8-22.2-20.3-22.2
		c-12.5,0-20.3,10.1-20.3,22.1C226.4,46.8,234.1,57,246.6,57z M313,65.8c-3,2.1-6.6,3.3-10.3,3.6c-6.7,0.6-13.5-1.9-16.2-8.5
		c-0.9-2.1-1.2-4.5-0.9-6.8c1.2-10.2,8.7-13,17.5-15.3c1.7-0.4,8.7-1.7,9.6-3.1c0.1-0.1,0.1-0.2,0.1-0.4c0.5-3.1-3.8-4-6.2-3.9
		c-3.8,0.2-6.6,1.9-7.7,5.6l-0.5,1.7l-11.4-2.4l0.3-1.8c1.9-9.4,10.6-14.6,19.7-14.6c11.5,0,18.2,6.4,18.2,18.1v30.6H313V65.8z
		 M313,48.5c-2.5,0.7-5,1.3-7.5,1.9c-2.3,0.6-7.2,2.2-6.7,5.5c0.3,2.1,3.3,2,4.8,1.9C308.2,57.5,312.7,53.2,313,48.5z M350.6,56.3
		h20.6v12.5h-37.8V57.4l19.8-24.2h-18.5V20.8h35.7V32L350.6,56.3z M404.5,65.8c-3,2.1-6.6,3.3-10.3,3.6c-6.7,0.6-13.5-1.9-16.2-8.5
		c-0.9-2.1-1.2-4.5-0.9-6.8c1.2-10.2,8.7-13,17.5-15.3c1.7-0.4,8.7-1.7,9.6-3.1c0.1-0.1,0.1-0.2,0.1-0.4c0.5-3.1-3.8-4-6.2-3.9
		c-3.8,0.2-6.6,1.9-7.7,5.6l-0.5,1.7l-11.4-2.4l0.3-1.8c1.9-9.4,10.6-14.6,19.7-14.6c11.5,0,18.2,6.4,18.2,18.1v30.6h-12.3V65.8z
		 M404.5,48.5c-2.5,0.7-5,1.3-7.5,1.9c-2.3,0.6-7.2,2.2-6.7,5.5c0.3,2.1,3.3,2,4.8,1.9C399.7,57.5,404.2,53.2,404.5,48.5z
		 M457.6,66.1c-3.4,2.3-7.4,3.3-11.7,3.3c-14,0-22.4-11.3-22.4-24.6c0-13.3,8.4-24.7,22.4-24.7c4.2,0,8.3,1.1,11.7,3.4v-2.7H470v68
		h-12.5V66.1z M446.9,57c7.1,0,10.3-5.7,10.3-12.2c0-6.5-3.2-12.2-10.3-12.2c-7,0-10.2,5.8-10.2,12.2C436.7,51.2,439.8,57,446.9,57z
		 M514.7,52.6c0.9,10.7-8.2,17-18.1,17c-8.6,0-17.3-3.9-20.3-12.5l-0.6-1.7l11.7-4.2l0.6,1.7c1.2,3.3,5,4.3,8.2,4.3
		c1.7,0,6.4-0.6,6-3.3c-0.2-1.6-7.2-3-8.4-3.2c-7.5-1.5-14.9-4.1-16.3-12.6c-0.7-4.2,0.5-8.7,3.2-12c3.5-4.3,8.9-5.9,14.3-5.9
		c5,0,9.7,1.4,13.4,4.8c2,1.8,4,4.6,4.7,7.3l0.4,1.7l-11.6,4l-0.6-1.8c-0.8-2.4-3.9-3.7-6.3-3.7c-1.8,0-5.1,0.4-5.1,2.8
		c0,2.6,5.7,3.6,7.5,3.9C505.5,40.6,513.9,43.2,514.7,52.6z M524.7,32.4h-6V20.8h6V12l12.4-3.4v12.2h9.1v11.6h-9.1v19.9
		c0,1.5-0.1,4,1.6,4.6c1.2,0.5,3.2-0.3,4.1-1.1l1.5-1.5l6.9,9.8l-1.1,1.1c-3.9,3.8-11,5.3-16.2,3.7c-7.4-2.3-9.3-8.9-9.3-16.1V32.4z
		 M582.6,65.8c-3,2.1-6.6,3.3-10.3,3.6c-6.7,0.6-13.5-1.9-16.2-8.5c-0.9-2.1-1.2-4.5-0.9-6.8c1.2-10.2,8.7-13,17.5-15.3
		c1.7-0.4,8.7-1.7,9.6-3.1c0.1-0.1,0.1-0.2,0.1-0.4c0.5-3.1-3.8-4-6.2-3.9c-3.8,0.2-6.6,1.9-7.7,5.6l-0.5,1.7l-11.4-2.4l0.3-1.8
		c1.9-9.4,10.6-14.6,19.7-14.6c11.5,0,18.2,6.4,18.2,18.1v30.6h-12.3V65.8z M582.6,48.5c-2.5,0.7-5,1.3-7.5,1.9
		c-2.3,0.6-7.2,2.2-6.7,5.5c0.3,2.1,3.3,2,4.8,1.9C577.8,57.5,582.3,53.2,582.6,48.5z M616.7,23c2.8-1.8,6-2.8,9.6-2.8
		c12.9,0,18.2,9.9,18.2,21.8v26.8h-12.4v-26c0-5.1-1.6-10.2-7.4-10.2c-5.9,0-7.9,4.2-7.9,9.6v26.5h-12.4V20.8h12.4V23z M681.1,34.8
		c0-18.9,13.6-34.5,33-34.5c19.4,0,33.1,15.7,33.1,34.6c0,18.9-13.7,34.5-33.1,34.5C694.7,69.4,681.1,53.6,681.1,34.8z M714.1,57
		c12.5,0,20.4-10.2,20.4-22.1c0-12-7.8-22.2-20.4-22.2c-12.5,0-20.3,10.2-20.3,22.1C693.8,46.7,701.5,57,714.1,57z M714.1,27.4
		c-4.1,0-7.3,3.4-7.3,7.4c0,4,3.3,7.3,7.3,7.3c4.1,0,7.4-3.2,7.4-7.3C721.5,30.7,718.2,27.4,714.1,27.4z M768.5,23
		c2.8-1.8,6-2.8,9.6-2.8c12.9,0,18.2,9.9,18.2,21.8v26.8h-12.4v-26c0-5.1-1.6-10.2-7.4-10.2c-5.9,0-7.9,4.2-7.9,9.6v26.5h-12.4V20.8
		h12.4V23z M836.8,51l11.1,5.4l-1,1.7c-4.1,7.2-11.3,11.3-19.7,11.3c-13.9,0-23.4-11.1-23.4-24.6c0-13.5,9.2-24.6,23.1-24.6
		c14.2,0,21.6,11.4,21.6,24.6c0,1.6-0.1,3.2-0.4,4.7l-0.3,1.5H836.8z M818,51c1.6,3.7,4.8,6,9.2,6c3.6,0,6.6-1.5,8.5-4.6l0.8-1.3
		H818z M817.7,39.1h17.7c-1.2-3.9-3.8-6.5-8.5-6.5C822.3,32.6,819.2,35.1,817.7,39.1z M868.5,22.9c2.8-1.8,6-2.8,9.6-2.8
		c1.3,0,2.5,0.2,3.8,0.4l1.8,0.3l-2.4,13.2l-2.1-0.9c-0.9-0.4-1.8-0.5-2.8-0.5c-5.8,0-7.9,4.3-7.9,9.6v26.5h-12.4V20.8h12.4V22.9z
		 M889.9,68.7V20.8h12.4v47.9H889.9z M896.1,17.7c-3.9,0-7-3.1-7-7c0-3.8,3.2-6.9,7-6.9c3.8,0,6.9,3.1,6.9,6.9
		C903,14.5,899.9,17.7,896.1,17.7z"/>
	<path class="st0" d="M27.7,48l10.5-12.2c0.8-1,1.3-1.8,1.3-3.1c0-1.5-1.4-2.8-3-2.8h-19c-1.5,0-3,1.2-3,2.9c0,1.7,1.2,3,3,3h4
		l0,25.3c0,1.7,1.4,3,2.9,3c1.2,0,2.3-0.3,3-1l9.5-10.8c2.3-2.9,4.4-3.3,7.4-3.3l15.2,0c2.5-2.8,5.1-5.7,7.5-8.5
		c-3.2-3.1-6.5-6.1-10.2-9.3c-2.3-1.9-5.5-2.3-7.8-0.4c-3.6,3-6.7,6-9.8,9.5c-3.6,4-8.2,9.3-11.7,13.4L27.7,48z M27.6,38.7l0-2.4
		c0-0.3,0.3-0.5,0.6-0.5h2.2c0.7,0,0.8,0.5,0.5,0.8L28.7,39C28.3,39.4,27.6,39.3,27.6,38.7z M52.9,43.5l-5.8,0
		c-1.2,0-1.5-0.9-0.8-1.5l4.1-3.8c0.7-0.6,1.6-0.9,2.5-0.9c0,0,0,0,0,0c0.9,0,1.9,0.3,2.5,0.9l4.1,3.8c0.7,0.7,0.4,1.5-0.8,1.5
		L52.9,43.5L52.9,43.5z M88.3,49.7l-3.4,0c-1.9,0-3.1,0.4-4,0.9c3.3,3.5,6,7,8.9,10.4c1.1,1.3,3.1,1.4,4.4,0.3
		c1.3-1.1,1.4-3.1,0.2-4.4C92.5,54.7,90.7,52.1,88.3,49.7z M68.2,50.3c1.3-1.5,2.7-3.1,4.1-4.6C77.4,51,81.7,56.5,86.4,62
		c1.1,1.3,1.1,3.2-0.2,4.4c-1.3,1.1-3.3,1-4.4-0.3c-4.7-5.2-7.9-9.9-12.9-15.2C68.7,50.8,68.4,50.5,68.2,50.3z M73.5,57.3
		c-2.5,2.9-4.6,5.9-7.2,8.8c-1.1,1.3-3.1,1.4-4.4,0.3c-1.3-1.1-1.4-3.1-0.3-4.4c2.7-3.1,5.2-6.3,7.9-9.4
		C71,54.2,72.2,55.7,73.5,57.3z M73.5,43.4C68.1,49.1,63,55.3,58.2,61c-1.1,1.3-3.1,1.4-4.4,0.3c-1.3-1.1-1.5-3.1-0.4-4.4
		c4.9-5.7,10.2-11.9,15.8-17.8C70.8,40.5,72.1,42,73.5,43.4z M78.8,38.1c4.1-4.1,8.1-7.8,12.5-11.2c2.8-2.4-0.9-7.3-4.6-4.1
		c-4.3,3.6-7.9,6.8-12.2,10.9C75.9,35.1,77.4,36.6,78.8,38.1z M80.1,40.3c-1.4,1.5-2.9,2.8-4.3,4.3c-2.1-2.1-4.1-4.2-6.1-6.1
		c-4.2-4-8.6-8-13-11.5c-2.8-2.4,0.9-7.3,4.6-4.1c4.3,3.6,8.5,7.2,12.7,11.2C76,36.2,78.1,38.3,80.1,40.3z M74.5,47.1
		c5.2-5.4,10.9-11.1,16.4-15.7c2.9-2.5,5.9-2.4,8.5-0.2c8.1,7.1,14,14.6,20,21.5l0-16.9h-3.9c-1.7,0-3-1.3-3.1-3
		c0-1.7,1.3-2.9,3-2.9l14,0c1.7,0,3.1,1.2,3.2,2.9c0,1.7-1.4,3-3.1,3l-4,0l0,25.3c0,1.7-1.4,3.1-2.9,3.1c-1,0-2-0.2-2.7-1L110.9,52
		c-2.1-2.4-3.6-2.9-6.6-3l-18.7,0c-3.2,0.2-5,0.6-7,2.6C77.4,50.2,75.9,48.6,74.5,47.1z M95.2,43.5l-5.8,0c-1.2,0-1.5-0.9-0.8-1.5
		l4.1-3.8c0.7-0.6,1.6-0.9,2.5-0.9c0,0,0,0,0,0c0.9,0,1.9,0.3,2.5,0.9l4.1,3.8c0.7,0.7,0.4,1.5-0.8,1.5L95.2,43.5L95.2,43.5z
		 M73.6,5.8C90.8,5.8,110,9,125.4,17c10.4,5.4,21.8,14.7,21.8,27.5S135.8,66.6,125.4,72C110,80,90.8,83.2,73.6,83.2
		C56.4,83.2,37.2,80,21.8,72C11.4,66.6,0,57.2,0,44.5S11.4,22.4,21.8,17C37.2,9,56.4,5.8,73.6,5.8z M14.3,24.7l2-1.4l2.1-1.4
		l2.2-1.3l2.4-1.3l2.5-1.2l2.6-1.2l2.7-1.1l2.8-1l2.9-1l3-0.9l3.1-0.8l3.2-0.7l3.3-0.7l3.3-0.6l3.4-0.5l3.5-0.4l3.5-0.3l3.6-0.2
		l3.6-0.1l3.7,0l3.7,0l3.6,0.1l3.6,0.2l3.5,0.3l3.5,0.4l3.4,0.5l3.3,0.6l3.3,0.7l3.2,0.7l3.1,0.8l3,0.9l2.9,1l2.8,1l2.7,1.1l2.6,1.2
		l2.5,1.2l2.4,1.3l2.2,1.3l2.1,1.4l2,1.4l1.8,1.5l1.7,1.5l1.5,1.6l1.4,1.6l1.2,1.6l1.1,1.7l0.9,1.7l0.8,1.7l0.6,1.7l0.4,1.7l0.3,1.8
		l0.1,1.8l-0.1,1.8l-0.3,1.8l-0.4,1.7l-0.6,1.7l-0.8,1.7l-0.9,1.7l-1.1,1.7l-1.2,1.6l-1.4,1.6l-1.5,1.6l-1.7,1.5l-1.8,1.5l-2,1.4
		l-2.1,1.4l-2.2,1.3l-2.4,1.3l-2.5,1.2l-2.6,1.2l-2.7,1.1l-2.8,1l-2.9,1l-3,0.9l-3.1,0.8l-3.2,0.7l-3.3,0.7L94.9,79l-3.4,0.5
		L88,79.9l-3.5,0.3l-3.6,0.2l-3.6,0.1l-3.7,0l-3.7,0l-3.6-0.1l-3.6-0.2l-3.5-0.3l-3.5-0.4L52.3,79l-3.3-0.6l-3.3-0.7L42.5,77
		l-3.1-0.8l-3-0.9l-2.9-1l-2.8-1L28,72.1L25.4,71l-2.5-1.2l-2.4-1.3l-2.2-1.3l-2.1-1.4l-2-1.4l-1.8-1.5l-1.7-1.5l-1.5-1.6l-1.4-1.6
		l-1.2-1.6l-1.1-1.7l-0.9-1.7l-0.8-1.7l-0.6-1.7L2.9,48l-0.3-1.8l-0.1-1.8l0.1-1.8L2.9,41l0.4-1.7l0.6-1.7l0.8-1.7l0.9-1.7l1.1-1.7
		l1.2-1.6l1.4-1.6l1.5-1.6l1.7-1.5L14.3,24.7z M144.5,5.8c-1.2,0-2.2,0.2-3.3,0.6c-1,0.4-1.9,1-2.7,1.8c-0.8,0.8-1.4,1.8-1.9,2.8
		c-0.4,1-0.7,2.1-0.7,3.2c0,1.1,0.2,2.2,0.6,3.2c0.4,1,1,1.9,1.9,2.7c0.8,0.8,1.7,1.4,2.7,1.9c1,0.4,2.1,0.6,3.2,0.6
		c1.1,0,2.2-0.2,3.2-0.7c1-0.4,2-1.1,2.8-1.9c0.8-0.8,1.4-1.7,1.8-2.7c0.4-1,0.6-2.1,0.6-3.2c0-1.1-0.2-2.2-0.6-3.2
		c-0.4-1-1-1.9-1.8-2.7c-0.8-0.8-1.7-1.4-2.7-1.8C146.8,6,145.7,5.8,144.5,5.8z M152.1,14.3c0-1-0.2-2-0.6-2.9
		c-0.4-0.9-0.9-1.7-1.6-2.4c-0.7-0.7-1.6-1.3-2.5-1.6c-0.9-0.4-1.9-0.6-2.9-0.6c-1,0-2,0.2-2.9,0.5c-0.9,0.4-1.7,0.9-2.4,1.6
		c-0.7,0.7-1.3,1.6-1.7,2.5c-0.4,0.9-0.6,1.9-0.6,2.9c0,1,0.2,1.9,0.6,2.8c0.4,0.9,0.9,1.7,1.7,2.4c0.7,0.7,1.5,1.3,2.5,1.6
		c0.9,0.4,1.9,0.6,2.9,0.6c1,0,2-0.2,2.9-0.6c0.9-0.4,1.8-0.9,2.5-1.7c0.7-0.7,1.2-1.5,1.6-2.3C151.9,16.3,152.1,15.3,152.1,14.3z
		 M144.7,9.2h-3.6V19h1.5v-4.3h2.3L147,19h1.7l-2.2-4.5c0.7-0.1,1.3-0.4,1.7-0.8c0.4-0.5,0.6-1,0.6-1.7c0-0.9-0.3-1.6-1-2
		C147.1,9.5,146.1,9.2,144.7,9.2z M144.5,10.2h-1.8v3.5h1.8c1,0,1.8-0.1,2.2-0.4c0.4-0.3,0.6-0.7,0.6-1.3c0-0.6-0.2-1.1-0.7-1.4
		C146.2,10.4,145.5,10.2,144.5,10.2z"/>
</g>
</svg>
