<?xml version="1.0" encoding="utf-8"?>
<!-- Generator: Adobe Illustrator 23.0.1, SVG Export Plug-In . SVG Version: 6.00 Build 0)  -->
<svg version="1.1" id="Layer_1" xmlns="http://www.w3.org/2000/svg" xmlns:xlink="http://www.w3.org/1999/xlink" x="0px" y="0px"
	 viewBox="0 0 703 104" style="enable-background:new 0 0 703 104;" xml:space="preserve">
<style type="text/css">
	.st0{fill-rule:evenodd;clip-rule:evenodd;fill:#57301D;}
</style>
<g>
	<g>
		<path class="st0" d="M700.6,95.3c-0.7,0-1.3-0.2-1.7-0.7c-0.5-0.4-0.8-1-0.8-1.7c0-0.6,0.3-1.3,0.8-1.7c0.4-0.5,1-0.7,1.7-0.7
			c0.6,0,1.2,0.2,1.7,0.7c0.5,0.4,0.8,1.1,0.8,1.7c0,0.7-0.2,1.3-0.8,1.7C701.7,95.1,701.2,95.3,700.6,95.3z M702.4,63.8l-0.4,22.4
			H699l-0.4-22.4H702.4z M690.1,94.9h-3.7V72.4c0-2.1,0.1-3.4,0.3-4.3h-0.1c-0.3,0.8-0.6,1.4-1,2l-16.1,24.8H665V63.8h3.6v21.9
			c0,2.3-0.1,3.9-0.2,4.6h0.1c0.3-0.6,0.7-1.3,1.2-2.1l15.7-24.4h4.7V94.9z M656.8,94.9h-3.6V74c0-1.7,0.1-3.7,0.3-6.1h-0.1
			c-0.4,1.4-0.7,2.4-0.9,3l-10.6,23.9H640l-10.6-23.8c-0.3-0.7-0.6-1.8-0.9-3.2h-0.1c0.1,1.3,0.2,3.3,0.2,6.1v20.9H625V63.8h4.8
			l9.6,21.7c0.8,1.7,1.3,2.9,1.4,3.8h0.1c0.6-1.7,1.1-3,1.5-3.8l9.8-21.6h4.6V94.9z M613.2,78.3V67h-5.1c-2.1,0-3.7,0.5-4.8,1.5
			c-1.1,0.9-1.7,2.3-1.7,4.1c0,1.8,0.6,3.2,1.8,4.3c1.1,1,2.7,1.5,4.6,1.5H613.2z M616.8,94.9h-3.6V81.7h-4.6
			c-0.9,0-1.6,0.3-2.3,0.7c-0.6,0.5-1.3,1.6-2.1,3.2l-3.9,9.4h-4.4l4.8-10.4c0.3-0.7,0.8-1.4,1.4-2.2c0.6-0.8,1.3-1.3,2.2-1.6v-0.1
			c-2.1-0.4-3.7-1.4-4.8-2.9c-1.2-1.4-1.8-3.2-1.8-5.3c0-2.6,0.9-4.8,2.8-6.4c1.9-1.6,4.3-2.4,7.3-2.4h9.1V94.9z M590.5,94.9h-3.6
			V72.4c0-2.1,0.1-3.4,0.2-4.3h-0.1c-0.3,0.8-0.6,1.4-1,2l-16.1,24.8h-4.5V63.8h3.7v21.9c0,2.3-0.1,3.9-0.2,4.6h0.1
			c0.3-0.6,0.8-1.3,1.3-2.1l15.6-24.4h4.7V94.9z M557.2,94.9h-3.6V80.7h-16.1v14.2h-3.6V63.8h3.6v13.6h16.1V63.8h3.6V94.9z
			 M527.8,94.9h-16.6V63.8H527V67h-12.1v10.4h11.3v3.3h-11.3v10.9h12.9V94.9z M489.4,80.4v11.2h4.9c2.1,0,3.8-0.5,5-1.5
			c1.2-1,1.8-2.4,1.8-4.2c0-3.7-2.5-5.5-7.5-5.5H489.4z M489.4,67v10.1h3.7c2,0,3.6-0.4,4.8-1.4c1.1-0.9,1.7-2.3,1.7-4.1
			c0-3-2-4.6-5.9-4.6H489.4z M485.7,94.9V63.8h8.9c2.7,0,4.8,0.6,6.4,1.9c1.6,1.3,2.4,3.1,2.4,5.2c0,1.8-0.5,3.3-1.4,4.6
			c-1,1.3-2.3,2.3-4,2.8v0.1c2.1,0.3,3.8,1.1,5.1,2.4c1.3,1.4,1.9,3.1,1.9,5.3c0,2.6-0.9,4.8-2.9,6.4c-1.9,1.7-4.3,2.5-7.3,2.5
			H485.7z M465,66.5c-3.3,0-5.9,1.2-7.9,3.6c-2.1,2.4-3.1,5.4-3.1,9.3c0,3.9,1,6.9,3,9.3c1.9,2.3,4.6,3.5,7.8,3.5
			c3.4,0,6.1-1.1,8.1-3.4c1.9-2.2,2.9-5.3,2.9-9.3c0-4.1-0.9-7.3-2.9-9.6C471,67.7,468.4,66.5,465,66.5z M464.7,95.4
			c-4.4,0-7.9-1.4-10.6-4.3c-2.6-2.9-3.9-6.8-3.9-11.4c0-5.1,1.3-9,4.1-12c2.7-3,6.4-4.5,11.1-4.5c4.3,0,7.8,1.4,10.4,4.4
			c2.6,2.9,3.9,6.7,3.9,11.4c0,5.1-1.3,9.1-4.1,12.1C472.9,94,469.3,95.4,464.7,95.4z M444,94.9h-3.7V80.7h-16.1v14.2h-3.6V63.8h3.6
			v13.6h16.1V63.8h3.7V94.9z M415.8,67.2h-12.5v27.8h-3.7V63.8h16.2V67.2z M391.4,94.9h-3.6V74c0-1.7,0.1-3.7,0.3-6.1H388
			c-0.3,1.4-0.6,2.4-0.9,3l-10.6,23.9h-1.8L364,71.2c-0.3-0.7-0.6-1.8-0.9-3.2H363c0.1,1.3,0.2,3.3,0.2,6.1v20.9h-3.6V63.8h4.9
			l9.6,21.7c0.7,1.7,1.2,2.9,1.4,3.8h0.1c0.6-1.7,1.1-3,1.5-3.8l9.8-21.6h4.6V94.9z M335.6,78.3V67h-5.1c-2.1,0-3.7,0.5-4.8,1.5
			c-1.1,0.9-1.7,2.3-1.7,4.1c0,1.8,0.6,3.2,1.8,4.3c1.1,1,2.7,1.5,4.6,1.5H335.6z M339.2,94.9h-3.6V81.7H331c-0.9,0-1.6,0.3-2.3,0.7
			c-0.6,0.5-1.3,1.6-2.1,3.2l-3.9,9.4h-4.4l4.8-10.4c0.3-0.7,0.8-1.4,1.4-2.2c0.6-0.8,1.3-1.3,2.2-1.6v-0.1
			c-2.1-0.4-3.7-1.4-4.8-2.9c-1.2-1.4-1.8-3.2-1.8-5.3c0-2.6,0.9-4.8,2.8-6.4c1.9-1.6,4.3-2.4,7.3-2.4h9.1V94.9z M314.8,93.6
			c-2.3,1.3-5.2,1.8-8.6,1.8c-4.4,0-7.9-1.4-10.6-4.3c-2.7-2.9-4-6.6-4-11.3c0-4.9,1.5-9,4.5-12.1c3-3.1,6.8-4.6,11.4-4.6
			c3,0,5.4,0.4,7.4,1.3v3.9c-2.3-1.3-4.7-1.9-7.4-1.9c-3.6,0-6.5,1.2-8.7,3.6c-2.3,2.4-3.4,5.6-3.4,9.6c0,3.8,1.1,6.8,3.1,9.1
			c2.1,2.3,4.8,3.4,8.2,3.4c3.1,0,5.8-0.7,8.1-2.1V93.6z M272.1,80.3v11.3h5.1c2.2,0,3.9-0.5,5-1.5c1.2-1,1.8-2.4,1.8-4.3
			c0-3.8-2.3-5.6-6.8-5.6H272.1z M268.5,94.9V63.8h3.6V77h5.9c3.1,0,5.5,0.8,7.3,2.3c1.7,1.5,2.6,3.6,2.6,6.4c0,2.9-0.9,5.1-2.7,6.8
			c-1.8,1.7-4.3,2.5-7.4,2.5H268.5z M263.6,67h-9v27.9h-3.7V67H242v-3.3h21.6V67z M235.2,82.9l-4.9-13.3c-0.2-0.4-0.3-1.1-0.5-2.1
			h-0.1c-0.2,0.9-0.3,1.6-0.5,2.1l-4.9,13.3H235.2z M243.8,94.9h-4.1l-3.3-8.8h-13.2l-3.1,8.8H216L228,63.8h3.8L243.8,94.9z
			 M206.2,91.6V67h-7.9c-0.3,3.6-1.1,7.8-2.4,12.6c-1.3,4.8-2.9,8.8-4.5,12H206.2z M214.1,103.3h-3.4v-8.4h-22.3v8.4H185V91.6h2.4
			c2.1-3.8,3.9-8.3,5.3-13.3c1.5-5.1,2.3-9.9,2.5-14.5h14.7v27.8h4.2V103.3z M182.2,94.9h-4.9l-12.2-14.3c-0.4-0.4-0.6-0.8-0.8-1.1
			h-0.1v15.3h-3.4V79.6h-0.1c-0.2,0.3-0.4,0.7-0.8,1.1l-12.2,14.3h-4.9L157,78.7l-13.3-14.9h4.4l11.7,13.4c0.4,0.4,0.6,0.8,0.8,1.1
			h0.1V63.8h3.4v14.6h0.1c0.2-0.4,0.4-0.7,0.8-1.1l11.7-13.4h4.4L168,78.7L182.2,94.9z M132.8,82.9l-4.9-13.3
			c-0.1-0.4-0.3-1.1-0.5-2.1h-0.1c-0.1,0.9-0.3,1.6-0.5,2.1L122,82.9H132.8z M141.4,94.9h-4.1l-3.3-8.8h-13.2l-3.1,8.8h-4.1
			l11.9-31.1h3.8L141.4,94.9z M109,94.9h-3.6V67h-8.6c-1,7.9-1.8,13.4-2.4,16.7c-0.6,3.3-1.2,5.6-1.8,7.1c-0.6,1.6-1.4,2.7-2.4,3.4
			c-1,0.8-2.3,1.1-3.6,1.1c-1.2,0-2.2-0.1-3-0.4v-3.4c0.8,0.4,1.6,0.6,2.4,0.6c0.9,0,1.8-0.6,2.6-1.6c0.8-1.1,1.6-3.8,2.4-8.4
			c0.9-4.5,1.8-10.6,2.8-18.4H109V94.9z M80.9,93.6c-2.3,1.3-5.1,1.8-8.6,1.8c-4.4,0-8-1.4-10.7-4.3c-2.6-2.9-4-6.6-4-11.3
			c0-4.9,1.5-9,4.5-12.1c3-3.1,6.8-4.6,11.4-4.6c2.9,0,5.4,0.4,7.3,1.3v3.9c-2.2-1.3-4.7-1.9-7.4-1.9c-3.6,0-6.5,1.2-8.7,3.6
			c-2.3,2.4-3.4,5.6-3.4,9.6c0,3.8,1.1,6.8,3.1,9.1c2.1,2.3,4.8,3.4,8.2,3.4c3.1,0,5.9-0.7,8.1-2.1V93.6z M47.2,82.9l-4.9-13.3
			c-0.1-0.4-0.3-1.1-0.5-2.1h-0.1c-0.1,0.9-0.3,1.6-0.5,2.1l-4.9,13.3H47.2z M55.8,94.9h-4.1l-3.3-8.8H35.2l-3.1,8.8H28l11.9-31.1
			h3.8L55.8,94.9z M23.4,94.9h-3.6V80.7H3.7v14.2H0V63.8h3.7v13.6h16.1V63.8h3.6V94.9z"/>
	</g>
	<path class="st0" d="M595.8,17.8v11.3h5.1c2.2,0,3.9-0.5,5-1.5c1.2-1,1.8-2.4,1.8-4.3c0-3.8-2.3-5.6-6.8-5.6H595.8z M592.2,32.4
		V1.3h3.6v13.2h5.9c3.1,0,5.5,0.8,7.3,2.3c1.7,1.5,2.6,3.6,2.6,6.4c0,2.9-0.9,5.1-2.7,6.8c-1.8,1.7-4.3,2.5-7.4,2.5H592.2z
		 M587.3,4.5h-9v27.9h-3.7V4.5h-8.9V1.3h21.6V4.5z M560.6,32.4H557V9.9c0-2.1,0.1-3.4,0.2-4.3H557c-0.3,0.8-0.6,1.4-1,2l-16,24.8
		h-4.6V1.3h3.7v21.9c0,2.3-0.1,3.9-0.2,4.6h0.1c0.3-0.6,0.8-1.3,1.3-2.1l15.6-24.4h4.7V32.4z M527.4,32.4h-3.7V18.2h-16.1v14.2h-3.6
		V1.3h3.6v13.6h16.1V1.3h3.7V32.4z M497.9,32.4h-16.5V1.3h15.8v3.3H485v10.4h11.3v3.3H485v10.9h12.9V32.4z M476,40.8h-3.4v-8.4
		h-24.3V1.3h3.6v27.8h16.1V1.3h3.7v27.8h4.2V40.8z M429.3,27.5l-3.5,10.7h-2.5l2.5-10.7H429.3z M404.5,17.8v11.3h5.1
		c2.1,0,3.8-0.5,5-1.5c1.1-1,1.8-2.4,1.8-4.3c0-3.8-2.3-5.6-6.8-5.6H404.5z M400.8,32.4V1.3h3.7v13.2h5.9c3.1,0,5.5,0.8,7.3,2.3
		s2.6,3.6,2.6,6.4c0,2.9-0.9,5.1-2.7,6.8c-1.8,1.7-4.3,2.5-7.4,2.5H400.8z M396,4.5h-9v27.9h-3.6V4.5h-9V1.3H396V4.5z M369.3,32.4
		h-3.7V9.9c0-2.1,0.1-3.4,0.3-4.3h-0.1c-0.3,0.8-0.6,1.4-1,2l-16.1,24.8h-4.5V1.3h3.6v21.9c0,2.3-0.1,3.9-0.2,4.6h0.1
		c0.3-0.6,0.7-1.3,1.2-2.1l15.7-24.4h4.7V32.4z M340.5,32.4h-4.9l-12.2-14.3c-0.4-0.4-0.6-0.8-0.8-1.1h-0.1v15.3h-3.4V17.1H319
		c-0.2,0.3-0.4,0.7-0.8,1.1L306,32.4h-4.9l14.3-16.2L302,1.3h4.4l11.8,13.4c0.3,0.4,0.6,0.8,0.8,1.1h0.1V1.3h3.4v14.6h0.1
		c0.2-0.4,0.4-0.7,0.8-1.1l11.7-13.4h4.4l-13.3,14.9L340.5,32.4z M272.7,4c-3.3,0-5.9,1.2-8,3.6s-3.1,5.4-3.1,9.3c0,3.9,1,6.9,3,9.3
		c2,2.3,4.6,3.5,7.8,3.5c3.4,0,6.1-1.1,8.1-3.4c2-2.2,2.9-5.3,2.9-9.3c0-4.1-0.9-7.3-2.9-9.6C278.7,5.2,276,4,272.7,4z M272.5,32.9
		c-4.4,0-8-1.4-10.6-4.3c-2.7-2.9-4-6.8-4-11.4c0-5.1,1.4-9.1,4.1-12c2.7-3,6.4-4.5,11.1-4.5c4.3,0,7.8,1.4,10.4,4.4
		c2.6,2.9,3.9,6.7,3.9,11.4c0,5.1-1.3,9.1-4,12.1C280.6,31.5,277,32.9,272.5,32.9z M238,17.9v11.2h4.9c2.1,0,3.8-0.5,5-1.5
		c1.2-1,1.8-2.4,1.8-4.2c0-3.7-2.5-5.5-7.5-5.5H238z M238,4.5v10.1h3.8c2,0,3.6-0.4,4.7-1.4c1.1-0.9,1.8-2.3,1.8-4.1
		c0-3-2-4.6-6-4.6H238z M234.3,32.4V1.3h8.9c2.7,0,4.9,0.6,6.4,1.9c1.6,1.3,2.4,3.1,2.4,5.2c0,1.8-0.5,3.3-1.4,4.6
		c-1,1.3-2.3,2.3-3.9,2.8v0.1c2.1,0.3,3.8,1.1,5,2.4c1.3,1.4,1.9,3.1,1.9,5.3c0,2.6-0.9,4.8-2.8,6.4c-1.9,1.7-4.4,2.5-7.3,2.5H234.3
		z M229.5,4.5h-9v27.9h-3.6V4.5h-9V1.3h21.6V4.5z M204.7,31.1c-2.3,1.3-5.2,1.8-8.6,1.8c-4.4,0-8-1.4-10.6-4.3
		c-2.7-2.9-4-6.6-4-11.3c0-4.9,1.5-9,4.5-12.1c3-3.1,6.8-4.6,11.4-4.6c2.9,0,5.4,0.4,7.4,1.3v3.9C202.5,4.7,200,4,197.3,4
		c-3.6,0-6.5,1.2-8.8,3.6c-2.2,2.4-3.3,5.6-3.3,9.6c0,3.8,1,6.8,3.1,9.1c2.1,2.3,4.8,3.4,8.2,3.4c3.1,0,5.8-0.7,8.1-2.1V31.1z
		 M178.3,31.1c-2.3,1.3-5.2,1.8-8.6,1.8c-4.4,0-7.9-1.4-10.6-4.3c-2.7-2.9-4-6.6-4-11.3c0-4.9,1.5-9,4.5-12.1
		c3-3.1,6.8-4.6,11.4-4.6c3,0,5.4,0.4,7.4,1.3v3.9C176.1,4.7,173.6,4,171,4c-3.6,0-6.5,1.2-8.8,3.6c-2.2,2.4-3.3,5.6-3.3,9.6
		c0,3.8,1.1,6.8,3.1,9.1c2.1,2.3,4.8,3.4,8.2,3.4c3.1,0,5.8-0.7,8.1-2.1V31.1z M154.1,1.3L144.5,23c-1.7,3.8-3.4,6.4-4.9,7.8
		c-1.6,1.4-3.3,2.1-5.2,2.1c-1.6,0-2.9-0.3-3.9-0.7v-3.7c1.3,0.8,2.4,1.1,3.6,1.1s2.3-0.5,3.3-1.4s2.1-2.5,3.2-4.8L129.9,1.3h4.1
		l7.5,16.6c0.1,0.3,0.4,0.9,0.8,2c0.1-0.1,0.4-0.8,0.9-2.1l6.9-16.5H154.1z M128.5,32.4h-5.1l-12.1-14.3c-0.4-0.6-0.7-0.9-0.8-1.1
		h-0.1v15.3h-3.7V1.3h3.7v14.6h0.1c0.2-0.3,0.5-0.7,0.8-1.1l11.7-13.6h4.5l-13.3,14.9L128.5,32.4z M100.5,31.1
		c-2.3,1.3-5.2,1.8-8.6,1.8c-4.4,0-8-1.4-10.6-4.3c-2.7-2.9-4-6.6-4-11.3c0-4.9,1.5-9,4.5-12.1c3-3.1,6.8-4.6,11.4-4.6
		c3,0,5.4,0.4,7.4,1.3v3.9C98.3,4.7,95.8,4,93.1,4c-3.6,0-6.5,1.2-8.8,3.6c-2.2,2.4-3.3,5.6-3.3,9.6c0,3.8,1.1,6.8,3.1,9.1
		c2.1,2.3,4.8,3.4,8.2,3.4c3.1,0,5.8-0.7,8.1-2.1V31.1z M71.1,32.4h-3.6V9.9c0-2.1,0.1-3.4,0.2-4.3h-0.1c-0.3,0.8-0.6,1.4-1,2
		L50.4,32.4h-4.5V1.3h3.6v21.9c0,2.3,0,3.9-0.1,4.6h0.1c0.3-0.6,0.8-1.3,1.3-2.1L66.4,1.3h4.7V32.4z M657.1,32.4h-3.7V9.9
		c0-2.1,0.1-3.4,0.3-4.3h-0.1c-0.3,0.8-0.6,1.4-1,2l-16.1,24.8h-4.5V1.3h3.6v21.9c0,2.3-0.1,3.9-0.1,4.6h0.1
		c0.3-0.6,0.7-1.3,1.2-2.1l15.7-24.4h4.7V32.4z"/>
</g>
</svg>
